<svg width="20" height="394" viewBox="0 0 20 394" fill="none" xmlns="http://www.w3.org/2000/svg">
<path d="M18.5 10.3657C18.5 15.3133 14.6441 19.2314 10 19.2314C5.35591 19.2314 1.5 15.3133 1.5 10.3657C1.5 5.41807 5.35591 1.5 10 1.5C14.6441 1.5 18.5 5.41807 18.5 10.3657Z" fill="white" stroke="#FFDB6B" stroke-width="3"/>
<rect width="3" height="360" transform="translate(8 19.0198)" fill="#FFDB6B"/>
<path d="M18.5 10.3657C18.5 15.3133 14.6441 19.2314 10 19.2314C5.35591 19.2314 1.5 15.3133 1.5 10.3657C1.5 5.41807 5.35591 1.5 10 1.5C14.6441 1.5 18.5 5.41807 18.5 10.3657Z" transform="translate(0 183)" fill="white" stroke="#FFDB6B" stroke-width="3"/>
<path d="M18.5 10.3657C18.5 15.3133 14.6441 19.2314 10 19.2314C5.35591 19.2314 1.5 15.3133 1.5 10.3657C1.5 5.41807 5.35591 1.5 10 1.5C14.6441 1.5 18.5 5.41807 18.5 10.3657Z" transform="translate(0 373)" fill="white" stroke="#FFDB6B" stroke-width="3"/>
</svg>
